<svg xmlns="http://www.w3.org/2000/svg" viewBox="0 0 350.38 323.9"><defs><style>.cls-1{fill:#a99173;}</style></defs><title>alojamiento</title><g id="Capa_2" data-name="Capa 2"><g id="Capa_1-2" data-name="Capa 1"><path class="cls-1" d="M308.15,154.1c0,9.54,0,18.35,0,27.15q0,53.72,0,107.42c0,19.14-13.64,33.18-32.86,34.58-17.81,1.29-35.62.21-53.42.38-9.73.09-11.46-2.16-11.63-12-.4-22.31,1-44.62.25-66.95C210.3,240,208.8,239,204.4,239q-29.73.33-59.46,0c-3.75,0-4.92,1.11-4.88,4.77.19,21.15.22,42.3.29,63.45,0,1.83.05,3.66,0,5.49-.28,8-2.88,11.15-10.88,11.14-19.15,0-38.31-.06-57.42-1-14.44-.71-25.73-12.28-28.76-27.68C41,283.7,41.2,272.06,41.56,260.39c1-34,.87-67.94.57-101.91,0-1.25.63-3.06-.77-3.63-1.67-.69-2.61,1.13-3.53,2.17a42.63,42.63,0,0,1-23.72,13.85c-6.48,1.38-12.33-.12-13.57-3.52-2-5.44,1.86-8.7,5.16-12Q77,83.91,148.31,12.49c16.45-16.45,37-16.74,53.45-.35q72.18,72,144.05,144.25a20.72,20.72,0,0,1,3.14,3.86c3.29,5.48.69,10.66-5.71,10.86-10.9.36-20.08-3.89-27.88-11.34C313.35,157.85,311.61,155.59,308.15,154.1Zm-13.69,63.81h-.34c0-23.15-.1-46.29.1-69.44,0-4.05-1.35-5.21-5.13-5.14-7.59.12-14.49,1.95-20.13,7.28-2.9,2.75-5.66,5.64-8.52,8.43-17,16.6-40.87,16.55-58-.08-3.94-3.82-7.68-7.86-12.24-11-9.4-6.48-20.5-6.44-29.88.12-4.8,3.36-8.75,7.68-13,11.67-16.42,15.46-39.26,15.67-55.82.46-3.8-3.49-7.43-7.16-11.31-10.56-5.53-4.85-12.1-6.71-19.41-6.4-3.21.14-4.8,1.18-4.72,4.72.11,5-.3,10-.41,15-.83,39.13,1.13,78.26,0,117.39a62.08,62.08,0,0,0,.81,10.44c1.39,9.86,7.49,17.05,16.1,17.93,16.42,1.69,32.92,1.5,49.41,1,3.44-.09,4.4-1.69,4.36-5-.13-10.65.08-21.31.07-32,0-12.65-.1-25.31-.15-38,0-4.56,1.18-8.35,6.47-9.1a58.51,58.51,0,0,1,7.93-.67q35-.06,69.93,0c12.46,0,13.77,1.63,13.78,14.26,0,21.81-.9,43.61-.23,65.43.12,3.75,1.59,5,5,5.09,15.16.23,30.33.69,45.44-.54,11.83-1,18.42-7.82,19.59-19.49a89.76,89.76,0,0,0,.37-9Q294.49,249.38,294.46,217.91Zm-243-89.58,1.08,1.56c2.6.67,5.22.18,7.81-.13,10.69-1.29,20.11,1.44,28.15,8.69l12.6,11.38c11.13,10,24,10.34,35.6.61C141,146.8,145,142.73,149.24,139c15.41-13.27,36.6-13.31,52-.07,4.42,3.79,8.45,8,12.9,11.8,10.19,8.59,22.43,9,33,1a162.92,162.92,0,0,0,13.36-12c8.8-8.4,19.26-11.45,31.19-10,2.05.24,4.1.77,6.63,0a19.6,19.6,0,0,0-1.63-2.37c-10.3-10.66-20.8-21.12-31.65-31.23-2.78-2.59-4-1.1-6,.76a39.68,39.68,0,0,1-54,1.07c-3.48-3.09-6.8-6.38-10.23-9.54C183,77.43,169.66,77,157.13,87.28c-3.85,3.17-7.33,6.79-11,10.11-16.18,14.44-39.68,14.15-55.09-1-2.78-2.73-4.34-2-6.5,0Zm180.77-34c6.4.29,11.43-2.6,16.28-6.42,3.75-3,4.07-5.07.5-8.59C229.92,60.51,210.73,41.8,192.27,22.4c-9.33-9.79-23.2-11.25-34.07.06C144.83,36.38,131,49.87,117.42,63.57,111.68,69.35,106,75.2,100.27,81c-1.55,1.56-2.36,2.77-.26,4.86,10.72,10.67,26.67,11,37.74.66,3.88-3.64,7.51-7.56,11.55-11a39.53,39.53,0,0,1,53.15,1.24c4,3.73,8.09,7.45,12.43,10.77C220,91.4,225.55,94.32,232.2,94.34Z"/></g></g></svg>