<svg xmlns="http://www.w3.org/2000/svg" viewBox="0 0 464.31 372.59"><defs><style>.cls-1{fill:#fdfdfc;}</style></defs><title>info</title><g id="Capa_2" data-name="Capa 2"><g id="Capa_1-2" data-name="Capa 1"><path class="cls-1" d="M166,372.59c-7.76-11-13.81-19-19.3-27.32C99,272.46,51.46,199.49,3.43,126.86c-6-9.08-4.07-11.76,5.4-14.6,33-9.87,32.9-10.13,50.92,19.92q41.72,69.54,83.39,139.09c2.86,4.76,6,9.34,10.82,16.68,6-16.57,10.86-30.67,16.17-44.61C194.82,178.53,225.23,117.11,275.89,68,328.38,17,391.5-3.84,464.31.58c0,6.56-4.87,5.32-7.26,6.11-128.81,42.77-210.89,132-256.8,257.4C187.59,298.67,176.76,333.85,166,372.59Z"/></g></g></svg>