<svg xmlns="http://www.w3.org/2000/svg" viewBox="0 0 801.65 286.91"><defs><style>.cls-1{fill:#d5c4af;}.cls-2{fill:#af987b;}.cls-3{fill:#b19a7d;}.cls-4{fill:#ae9779;}.cls-5{fill:#b8a388;}.cls-6{fill:#fff;}</style></defs><title>maleylea</title><g id="Capa_2" data-name="Capa 2"><g id="Capa_1-2" data-name="Capa 1"><path class="cls-1" d="M153.77,81.62,158,75.7c3.36-1.11,4.52-3.73,4.78-7l0,0c1.43.08,2-.67,2-2l0,.06c1-.37,1-1.21,1-2.07l-.07.06c1.76.08,2.61-1,3.06-2.48,2-6.5,7.31-10.82,11.31-15.81,11.23-14,23.72-26.94,38.31-37.65,7.5-5.51,11.76-6.13,17.59-1.78,6.45,4.8,5.42,11.82,4.32,18.34-3,17.56-8.76,34.4-14,51.37Q215.33,112,204.38,147.21a37.58,37.58,0,0,0-.82,4.38,1.89,1.89,0,0,0-.67,2.13c0,.12.31.31.36.28.84-.49.59-1.35.68-2.1,4.07-2.59,6.71-6.59,9.31-10.39,11.28-16.48,25.88-29.84,40.22-43.45A104.94,104.94,0,0,1,262,91.18c4.28-3.28,7.8-3.22,12.25,0,3.71,2.69,4.11,6.06,2.53,10.13-6.24,16.1-12.67,32.13-18.51,48.38-5.17,14.38-9.72,29-9.48,44.56a33.07,33.07,0,0,0,.45,4.44c.57,3.68,2.36,4.88,5.88,3a10.51,10.51,0,0,1,3.81-1c3.29-.36,6.69-.12,8.29,3.17,1.78,3.65-2.77,3.8-4,5.89-3.16,0-6.31.08-9.47,0a17.22,17.22,0,0,1-16-11.39,41,41,0,0,1-2.06-11.18c-1.16-20.86,5.79-39.77,14-58.4,2.36-5.38,4.81-10.73,7.47-16.68-3.85,1.22-3.57,4.6-5.38,6.39-2.31.09-3.39,2-4.72,3.37-15.23,16-28.91,33.32-42.4,50.79-3.31,4.29-6.14,9.11-11,12.05-8.25-.2-11.47-3.55-10.89-11.72a57,57,0,0,1,1.66-9.77c7.79-31.25,18.09-61.74,27.79-92.41,5.45-17.25,11.9-34.17,16.53-51.67.34-1.27,2.38-3.5-.4-4-2.26-.43-2.75,1.86-2.79,3.82-5.76,1.58-9.33,6.24-13.32,10.05-24.84,23.66-44.84,51.24-63.52,79.8a524.32,524.32,0,0,0-55.94,113.3c-.9,2.54-1.74,5.13-4.93,5.66-7.16-3.11-7.51-3.77-5.84-11.57.8-3.72,1.58-7.45,2.46-11.15,10.67-44.9,25.1-88.75,37.32-133.21,3.47-12.61,7.35-25.18,7.84-38.39.09-2.67,1.56-6.52-1.32-7.84-3.17-1.46-6.07,1.31-8.57,3.44-48,35.15-79.57,82.17-99.43,137.61a75,75,0,0,0-4.78,27.84c.1,3,.16,5.51,3.29,7.07,1.4.7,3.17,2.12,2.69,3.86-.69,2.46-3.13.85-4.75,1.29a21.73,21.73,0,0,0-2.32-.89C6.1,203.67,5,202,4.66,193.5c-.47-11.34,2.21-22.08,5.6-32.7,4.31-13.5,10.72-26.11,16.65-38.92,4.54-7.51,9.25-14.92,13.56-22.56,2.16-3.82,6-6.76,6.3-11.59l0,0c1.46.11,2-.66,2-2l0,0c1.54-.49,2-1.74,2.28-3.16A230.19,230.19,0,0,1,88.81,38.25c7.7-7.11,15.73-13.7,25.15-18.64,13.42-7,27.09,2.41,26.81,16.89-.29,14.75-3.73,28.93-7.49,43-4.4,16.52-9.14,32.95-13.78,49.4a11.32,11.32,0,0,0-.72,4.88l.06-.08c-1.2.51-1,1.59-1.06,2.56-.67,1.93-2.13,3.66-1.71,6,1.66-.57,2.23-1.78,2.86-3,9.46-17.75,20.37-34.62,31.61-51.27,1.08-1.59,2.74-3.06,2.2-5.36l0,.06Zm-38.53,63.43c.11-.06.26-.1.3-.19s0-.26-.05-.39l-.45.26Z"/><path class="cls-1" d="M653.91,49.62c.05-2.75,2.37-4.23,3.76-6.09,11.52-15.45,23.69-30.3,40.4-40.62,4.65-2.88,9.38-4.14,14.57-1.36,5.64,3,7.94,7.88,6.51,14.15-2.66,11.7-8.49,22-14.62,32.09C683.57,82.22,660.3,115,632.09,144a38.7,38.7,0,0,1-3.42,2.81c-.78.13-1.62.15-2,1.06l.05,0a10.49,10.49,0,0,1-5.7-1.34c-4.69-2.89-5-2.67-5.27,3.17-4.26,4.68-5.5,10.81-7.76,16.4-6.09,15.08-11.9,30.26-17.76,45.43-.57,1.46-1.52,2.92-1,5.23,8.45-5.06,16.58-10.11,24.9-14.85,11.86-6.75,24.08-12.85,37.61-15.45,8.07-1.55,16.36-2.34,22.44,5.26,2,2.44,3.33,4.82-1.62,5.13l.12,0c-.45-1.19-.83-.57-1.21,0-4-5.71-9.35-6.06-15.42-4a121.49,121.49,0,0,0-15.32,5.92c-8.23,2.73-15.47,7.48-23,11.55-7.83,4.22-15.44,8.85-23.15,13.3l-.82,1.16,0,0c-1,0-2-.08-3,0-9.84.22-13.67-4.5-11.27-14a119.1,119.1,0,0,1,3.38-12c10.28-27.93,22-55.25,34.81-82.09q7.1-14.84,14.14-29.69c4.06-7,8.25-13.83,12.16-20.87C647.08,60.45,651.73,55.79,653.91,49.62Zm17.73,29.12,0,.05a1.76,1.76,0,0,0,1-2.05l0,0c2.1-.06,2.14-1.5,2-3l0,0c2.65-.11,3.19-1.81,3-4l0,0c1.43.08,2-.68,2-2l0,0a2.8,2.8,0,0,0,2-3l0,0c1-.35,1.11-1.15,1-2l0,0c2.13,0,2.17-1.46,2-3h0c1.19.14,1.79-.59,2.36-1.47,3.93-6.14,8.51-11.87,11.68-18.5,4.89-8.1,9.34-16.42,11.67-25.67.49-2,1.57-4.75-.66-5.84-2-1-3.93,1.08-5.44,2.64a4,4,0,0,0-.53,1.36C692.05,19.51,683,29.38,674.55,40c-21.49,27.1-36.37,58-51,89-.85,1.82-2,3.77.36,5.3,2.6,1.7,4.46-.64,5.45-2,3.41-4.87,7.87-8.8,11.47-13.44,10-12.9,19.82-25.93,29.71-38.91Z"/><path class="cls-1" d="M502.71,204c-5.44,19.73-14,37.94-27.17,53.72-6.11,7.33-12.5,14.57-21.27,19l-1.57,1.07.08-.05c-1.75-.33-3.3.46-4.78,1.12-8.27,3.66-16.95,4.33-25.83,3.88-13.12-.67-21-9.07-19.35-21.11.5-3.72,1.91-7.32,2.9-11,6.88-12.66,18.1-21,29.44-29.09,17.35-12.41,36.72-20.57,57-26.68.95-.29,2-.29,2.62-1.21,5.37.18,4.13-4.42,4.73-7.14,3-13.69,2.15-27.63,2.11-41.5,0-1.32.82-3.57-1.21-3.7-1.71-.1-2.61,1.77-2.73,3.59,0,.66-.1,1.32-.16,2-4,.3-4.37,4.39-6.62,6.52-2,1.86-3.09,4.6-6,5.36-5-.89-7.88-4.16-8.24-8.95-.42-5.64,2.25-10.64,3-16,1.74-1.59,2.48-5.28,6.05-3.19,3.08,1.81,3.44,4.41,1.95,7.57-.64,1.37-1.7,3,.22,4.4-.22.39-.45.78-.68,1.17a1.68,1.68,0,0,0-1.56,1.57c.24.83.06,3.15,1.57,1.2,2.74-3.54,5.86-7,6.4-11.82l0,.05,1-.9c4.68-5.3,8.1-4.72,11.1,2a37.4,37.4,0,0,1,2.88,13.53,178.84,178.84,0,0,1-2.05,36.7c-.76,4.68.93,5.11,4.88,4.58a116.36,116.36,0,0,1,35.2.2c14.13,2.4,23.23,13,21.82,25.75-.42,3.79.28,9.1-5.69,10.18-2.77-5.07,1.11-9.59,1.19-14.42,1-5.45-.76-8.58-5.49-9.65-4.83-4.5-10.91-4.67-17-5.34-12.19-1.34-24,.58-35.77,3.19A3.28,3.28,0,0,0,502.71,204Zm-32,46.68-.07.05c1.41,0,2.07-.66,2.05-2l0,.05c1-.36,1.08-1.16,1-2l0,0c3.95-1.74,5-5.77,7.06-9,6-9.58,10.37-19.94,14-30.62,1.13-3.29.07-3.85-3-2.9a219.36,219.36,0,0,0-25,9.59,12.82,12.82,0,0,0-2.76,1c-4.66,3.14-10.74,4-14.24,9l0-.05c-2.14,0-4.25.1-4.94,2.74-3.74,2.75-7.47,5.52-11.22,8.25-10.63,7.72-19.16,17-22.43,30.15-1.75,7,2.29,12.25,9.37,12.77A47.75,47.75,0,0,0,444.25,273c10.13-4.61,17.62-12.3,24.9-20.31C470.33,252.5,470.69,251.7,470.69,250.63Z"/><path class="cls-1" d="M386,61.64a10.62,10.62,0,0,0,1.72-1.77c1.13-1.84,2.6-2.69,4.57-1.56s1.86,3.08,1.11,4.84c-1.69,4-3.46,7.94-5.36,11.82-9.73,19.86-20.24,39.37-26.83,60.62-2,6.53-3.67,13.1-3.58,20,0,3.2,1.33,3.49,3.56,1.89,9-6.48,18.66-12,25.59-21.11,2.71-3.55,6.56-6.08,10.45-8.39,3.49-2.08,6.57-.84,9.17,1.4s1.76,5.21.58,7.85c-3.08,6.89-8.62,11.73-14.2,16.49-1,.87-3.19.74-2.49,3a4,4,0,0,0,3.95,3.18c3.35.09,6.58,0,9.73-1.59,8.57-4.19,16.23-9.78,24-15.2a25.91,25.91,0,0,1,4.16-2.73c1.57-.7,3,.3,3.87,1.51s-.31,2.11-1.1,2.88a122.83,122.83,0,0,1-24.23,17.86c-.48-.87-.73-.51-.9.18l.06-.06c-2.74.53-5.48,1-8.22,1.59-9.86,1.92-16-1.35-18.75-9.88-.4-1.26.58-3.44-1.69-3.51-2-.07-2.43,1.93-3.08,3.43l-13.39,9.28c-.68-1.1-1.63-.74-2.61-.55-6.92,1.32-11.54-1.69-13.18-8.38-.29-1.21.83-3.52-1.43-3.45-1.66,0-2.63,1.79-2.86,3.59-4.71,3.36-9.4,6.75-14.14,10.07-1.6,1.12-3,2.66-5.13,2.81-1,0-2-.06-2.57,1l.06,0c-1.78-.31-3.18.76-4.75,1.26-10.09,3.21-20.35.83-21.68-12.9-.34-3.58.75-6.89.29-10.33-.16-1.23.71-3.12-.87-3.52-1.73-.45-2.38,1.36-2.93,2.73a13.71,13.71,0,0,0-.46,1.94c-4.89,3.73-7.55,9.36-11.66,13.75-1.77,1.89-2.95,4.45-5.84,5l-1.15,1.07.07,0c-.82,0-1.65,0-2.47-.1-9-.82-12.15-5.63-9.49-14.14.88-2.81,2.69-5.3,2.88-8.34C270,138.59,276.2,134,285.15,136c2.59.6,4,0,5.61-1.72,1.49-1.53,3.4-2.66,5-4.14a6.1,6.1,0,0,1,7.33-1.14c2.58,1.18,3.5,3.53,3.49,6.15,0,6.64-1.12,13.21-1,19.89.22,13.16,1.49,14.09,13,7.79a153.82,153.82,0,0,0,26.79-18.1c3.94-1.22,4.07-4.64,4.88-7.89,5.73-23.05,17.54-43.28,29.38-63.52C381.84,69.53,385.13,66.23,386,61.64Z"/><path class="cls-1" d="M665.68,139.78c3.48-5,8.23-8.58,13.34-11.73,3.19-2,6-1.08,8.67,1.18s2.48,5.31,1,8.16a45,45,0,0,1-14.37,16.24c-1.21.88-3,1-2.29,3.07.54,1.64,1.47,3,3.44,3.18a19.88,19.88,0,0,0,12-2.46,201.54,201.54,0,0,0,27.32-18.26c3.15-2.47,6.72-4.39,10.57-3.33,6.11,1.68,9.91-1.48,13.78-5.13,1.71-1.61,3.5-3.12,6.17-2.37,3.47,1,5.4,3,5.18,6.86q-.57,9.44-1,18.88a52.06,52.06,0,0,0,.08,6c.49,6.75,2.27,7.89,8.46,5,12.27-5.75,23.19-13.61,33.75-22,1.3-1,2.67-2,3.94-3.05,1.91-1.59,3.94-1.32,5.31.34,1.54,1.85-.62,3-1.68,4A125.63,125.63,0,0,1,771,166.75l-1.34,1.08.09-.07c-2.67-.37-4.65,1.51-7,2.14-13.19,3.49-22.69-.41-22.15-15.67.14-3.87,0-7.75,0-11.91-3.5,1.35-3.92,3.87-4.07,6.56-2.35-.33-2.89,1.71-4,3.05-4.72,5.82-8.76,12.23-14.86,16.83-7.33-2.2-15.51-3.65-12.13-14.71-2.43.1-3.62,1-4,2.87l-.87.89.08-.05-7.61,4-1.46,1.07.08-.06c-2.74-.34-5.16,1.12-7.79,1.41-4.16.46-8.64,1.31-12.31-.76-4.67-2.64-6.9-7.09-7.25-12.78C664.15,146.81,667,143.57,665.68,139.78Z"/><path class="cls-2" d="M119.78,29.06c2.5-2.13,5.4-4.9,8.57-3.44,2.88,1.32,1.41,5.17,1.32,7.84-.49,13.21-4.37,25.78-7.84,38.39-12.22,44.46-26.65,88.31-37.32,133.21-.88,3.7-1.66,7.43-2.46,11.15-1.67,7.8-1.32,8.46,5.84,11.57-.9,4.07-3.82,3.56-6.66,2.78-3.37-.92-4.87-3.1-4.2-6.74q3.28-17.9,8.21-35.41c11.63-41,23.44-82,35.07-123.07a124.61,124.61,0,0,0,5.08-30.89C125.49,30.29,124.43,28,119.78,29.06Z"/><path class="cls-2" d="M225.6,19c0-2,.53-4.25,2.79-3.82,2.78.52.74,2.75.4,4-4.63,17.5-11.08,34.42-16.53,51.67-9.7,30.67-20,61.16-27.79,92.41a57,57,0,0,0-1.66,9.77c-.58,8.17,2.64,11.52,10.89,11.72-2.15,3.84-5.28,4.69-9.29,3.17-4.48-1.7-6.59-4.88-6.17-9.64a110.91,110.91,0,0,1,3.91-19.51C193.63,117,207.75,76,221,34.74,222.7,29.53,224.08,24.23,225.6,19Z"/><path class="cls-3" d="M631.8,86.93q-7.06,14.85-14.14,29.69c-12.83,26.84-24.53,54.16-34.81,82.09a119.1,119.1,0,0,0-3.38,12c-2.4,9.54,1.43,14.26,11.27,14,1,0,2,0,3,0-1.66,2-4,2.85-6.36,3.56-7.71,2.33-14.67-3.9-12.87-11.7,4.07-17.58,11.4-34,18.32-50.58,10.84-25.93,22.55-51.47,35.65-76.36.69-1.31,1.49-2.58,2.24-3.87Z"/><path class="cls-2" d="M251.79,118.53c1.81-1.79,1.53-5.17,5.38-6.39-2.66,6-5.11,11.3-7.47,16.68-8.17,18.63-15.12,37.54-14,58.4a41,41,0,0,0,2.06,11.18,17.22,17.22,0,0,0,16,11.39c3.16,0,6.31,0,9.47,0-9.72,9.22-27.05,3.74-30.39-9.9-2.65-10.82-1.79-21.77.52-32.58C237.05,150.1,244.46,134.33,251.79,118.53Z"/><path class="cls-3" d="M26.91,121.88C21,134.69,14.57,147.3,10.26,160.8c-3.39,10.62-6.07,21.36-5.6,32.7C5,202,6.1,203.67,14.48,205.84a21.73,21.73,0,0,1,2.32.89c1.67,3,1.06,4.19-2.55,3.84C2.8,209.46-.28,206.3,0,194.7c.42-16.36,5.76-31.54,12-46.39,4-9.45,8.24-18.82,13.79-27.51Z"/><path class="cls-4" d="M564,212.38c-.08,4.83-4,9.35-1.19,14.42-.62,1.4-.53,3.81-2.88,3.19-2-.53-2.58-2.56-2.2-4.5.59-2.92,1.63-5.75,2.1-8.68,1-6.15-.68-9.22-6.43-12-8.55-4.15-17.79-3.79-26.93-3.79-8,0-15.86,1.59-23.73,2.94a3.28,3.28,0,0,1,3-3.37c11.79-2.61,23.58-4.53,35.77-3.19,6.13.67,12.21.84,17,5.34A23.67,23.67,0,0,1,564,212.38Z"/><path class="cls-2" d="M405.72,250.63c-1,3.65-2.4,7.25-2.9,11-1.65,12,6.23,20.44,19.35,21.11,8.88.45,17.56-.22,25.83-3.88,1.48-.66,3-1.45,4.78-1.12-11.39,8.37-24.36,10.64-37.88,8.36-7.09-1.19-14-4.72-15.91-12.71C396.92,264.74,399.26,257,405.72,250.63Z"/><path class="cls-3" d="M386,61.64c-.82,4.59-4.11,7.89-6.35,11.71-11.84,20.24-23.65,40.47-29.38,63.52-.81,3.25-.94,6.67-4.88,7.89,1.56-13.08,7.08-24.8,12.73-36.44,7.39-15.24,16.17-29.7,25.1-44.07C383.86,63.14,384.41,61.85,386,61.64Z"/><path class="cls-4" d="M736.5,148.88c.15-2.69.57-5.21,4.07-6.56,0,4.16.12,8,0,11.91-.54,15.26,9,19.16,22.15,15.67,2.37-.63,4.35-2.51,7-2.14a34.61,34.61,0,0,1-16.24,7.17c-9.6,1.45-16.71-4.45-17-14.06C736.31,156.88,736.47,152.88,736.5,148.88Z"/><path class="cls-4" d="M292.4,148a13.71,13.71,0,0,1,.46-1.94c.55-1.37,1.2-3.18,2.93-2.73,1.58.4.71,2.29.87,3.52.46,3.44-.63,6.75-.29,10.33,1.33,13.73,11.59,16.11,21.68,12.9,1.57-.5,3-1.57,4.75-1.26-7.24,7.74-20.49,8.44-27,1.59-3.57-3.74-3.74-8.34-3.82-13C291.9,154.26,292.24,151.11,292.4,148Z"/><path class="cls-4" d="M497.56,146.88c.06-.66.12-1.32.16-2,.12-1.82,1-3.69,2.73-3.59,2,.13,1.2,2.38,1.21,3.7,0,13.87.9,27.81-2.11,41.5-.6,2.72.64,7.32-4.73,7.14C497.92,178.19,498,162.55,497.56,146.88Z"/><path class="cls-2" d="M665.68,139.78c1.33,3.79-1.53,7-1.3,10.86.35,5.69,2.58,10.14,7.25,12.78,3.67,2.07,8.15,1.22,12.31.76,2.63-.29,5-1.75,7.79-1.41-7.21,5.7-15.13,7.56-23.65,3.52-7.85-3.72-10-10.28-6.87-18.81A25.41,25.41,0,0,1,665.68,139.78Z"/><path class="cls-4" d="M378.05,154.4c.65-1.5,1.05-3.5,3.08-3.43,2.27.07,1.29,2.25,1.69,3.51,2.71,8.53,8.89,11.8,18.75,9.88,2.74-.54,5.48-1.06,8.22-1.59-6.43,5.31-13.65,7.15-21.61,4.29C382.35,165,378.45,161,378.05,154.4Z"/><path class="cls-5" d="M152.74,82.73c.54,2.3-1.12,3.77-2.2,5.36-11.24,16.65-22.15,33.52-31.61,51.27-.63,1.18-1.2,2.39-2.86,3-.42-2.36,1-4.09,1.71-6,.91-.62.93-1.61,1.06-2.56l-.06.08c3-2.73,4.49-6.48,6.52-9.84,7.69-12.77,15.83-25.24,24.29-37.5A48.46,48.46,0,0,1,152.74,82.73Z"/><path class="cls-2" d="M264.74,145.2c-.19,3-2,5.53-2.88,8.34-2.66,8.51.51,13.32,9.49,14.14.82.08,1.65.07,2.47.1-3.19,3.83-7,4.64-11.73,2.5-4.11-1.87-6.16-4.95-5.29-9.5C257.94,154.84,260.2,149.43,264.74,145.2Z"/><path class="cls-4" d="M479.71,133.8c-.8,5.37-3.47,10.37-3,16,.36,4.79,3.26,8.06,8.24,8.95-4,5.31-7.94,5-11.35-1C470.5,152.5,474.35,137.48,479.71,133.8Z"/><path class="cls-2" d="M344.58,154.89c.23-1.8,1.2-3.54,2.86-3.59,2.26-.07,1.14,2.24,1.43,3.45,1.64,6.69,6.26,9.7,13.18,8.38,1-.19,1.93-.55,2.61.55-3,2.3-6.21,4-10,3.78C348.56,167.15,345.19,162.83,344.58,154.89Z"/><path class="cls-4" d="M701.51,156.92c.41-1.88,1.6-2.77,4-2.87-3.38,11.06,4.8,12.51,12.13,14.71-3.88,3.56-8.16,3.24-12.43,1-4.09-2.14-5.25-5.71-4.27-10.12a5.76,5.76,0,0,0-.25-1.89l-.08.05C701.56,158.13,701.42,157.41,701.51,156.92Z"/><path class="cls-2" d="M640.7,198.77A121.49,121.49,0,0,1,656,192.85c6.07-2.07,11.41-1.72,15.42,4l1.21,0-.12,0c-.43,2.78-1.67,5.57-4.43,2.44-4.76-5.41-10-4-15.56-2.45-3.51,1-7,2.13-10.49,3.2Z"/><path class="cls-5" d="M640.7,198.77l1.35,1.2c-14.94,6.86-29.29,14.85-43.5,23.11a11.42,11.42,0,0,1-2.32.73l-1.7-.19c7.71-4.45,15.32-9.08,23.15-13.3C625.23,206.25,632.47,201.5,640.7,198.77Z"/><path class="cls-5" d="M631.8,86.93l-1.09-1.12c5.82-12.6,13.65-24,21.56-35.32.32-.45,1.08-.58,1.64-.87-2.18,6.17-6.83,10.83-9.95,16.44C640.05,73.1,635.86,80,631.8,86.93Z"/><path class="cls-5" d="M26.91,121.88l-1.06-1.08A202.2,202.2,0,0,1,46.77,87.73c-.3,4.83-4.14,7.77-6.3,11.59C36.16,107,31.45,114.37,26.91,121.88Z"/><path class="cls-3" d="M615.76,149.63c.24-5.84.58-6.06,5.27-3.17a10.49,10.49,0,0,0,5.7,1.34C623.68,152.06,620,152.56,615.76,149.63Z"/><path class="cls-5" d="M493.66,134.7c-.54,4.79-3.66,8.28-6.4,11.82-1.51,1.95-1.33-.37-1.57-1.2l1.56-1.57c.23-.39.46-.78.68-1.17C489.83,140,490.83,136.66,493.66,134.7Z"/><path class="cls-5" d="M162.74,68.74c-.26,3.23-1.42,5.85-4.78,7A15.86,15.86,0,0,1,162.74,68.74Z"/><path class="cls-5" d="M168.75,62.31c-.45,1.53-1.3,2.56-3.06,2.48C166.25,63.4,166.92,62.14,168.75,62.31Z"/><path class="cls-5" d="M51,82.61c-.25,1.42-.74,2.67-2.28,3.16A2.57,2.57,0,0,1,51,82.61Z"/><path class="cls-5" d="M164.74,66.74c0,1.36-.61,2.11-2,2C163,67.73,163.45,66.81,164.74,66.74Z"/><path class="cls-5" d="M48.76,85.74c0,1.36-.57,2.13-2,2C47,86.69,47.32,85.64,48.76,85.74Z"/><path class="cls-4" d="M322.74,168.81c.55-1.1,1.57-1,2.57-1C324.65,168.61,323.9,169.21,322.74,168.81Z"/><path class="cls-5" d="M165.76,64.73c0,.86,0,1.7-1,2.07A2,2,0,0,1,165.76,64.73Z"/><path class="cls-3" d="M626.68,147.82c.37-.91,1.21-.93,2-1.06A1.66,1.66,0,0,1,626.68,147.82Z"/><path class="cls-3" d="M594.53,223.62l1.7.19a2.39,2.39,0,0,1-2.52,1Z"/><path class="cls-4" d="M409.73,162.83c.17-.69.42-1.05.9-.18A1.76,1.76,0,0,1,409.73,162.83Z"/><path class="cls-2" d="M691.65,162.83l1.46-1.07Z"/><path class="cls-5" d="M153.77,81.62l-1.06,1.17A1.17,1.17,0,0,1,153.77,81.62Z"/><path class="cls-2" d="M273.75,167.81l1.15-1.07Z"/><path class="cls-4" d="M769.63,167.83l1.34-1.08Z"/><path class="cls-5" d="M494.64,133.85l-1,.9Z"/><path class="cls-2" d="M452.7,277.76l1.57-1.07Z"/><path class="cls-6" d="M203.93,151.9c-.09.75.16,1.61-.68,2.1-.05,0-.32-.16-.36-.28a1.89,1.89,0,0,1,.67-2.13Z"/><path class="cls-5" d="M115.24,145.05l-.2-.32.45-.26c0,.13.09.28.05.39S115.35,145,115.24,145.05Z"/><path class="cls-6" d="M118.84,133.74c-.13.95-.15,1.94-1.06,2.56C117.84,135.33,117.64,134.25,118.84,133.74Z"/><path class="cls-3" d="M697.5,38.55c3.41-7.28,7.32-14.38,8.86-22.37.32-1.66,2.15-5.37-2.69-3.89a4,4,0,0,1,.53-1.36c1.51-1.56,3.43-3.62,5.44-2.64,2.23,1.09,1.15,3.88.66,5.84C708,23.38,703.52,31.7,698.63,39.8,698.25,39.39,697.88,39,697.5,38.55Z"/><path class="cls-5" d="M697.5,38.55c.38.42.75.84,1.13,1.25-3.17,6.63-7.75,12.36-11.68,18.5-.57.88-1.17,1.61-2.36,1.47C688.21,52.28,693.34,45.71,697.5,38.55Z"/><path class="cls-5" d="M674.58,73.77a7.6,7.6,0,0,1,3-4C677.77,72,677.23,73.66,674.58,73.77Z"/><path class="cls-5" d="M672.59,76.77a4.07,4.07,0,0,1,2-3C674.73,75.27,674.69,76.71,672.59,76.77Z"/><path class="cls-5" d="M679.6,67.78c-.27-1.63.28-2.73,2-3A2.8,2.8,0,0,1,679.6,67.78Z"/><path class="cls-5" d="M682.59,62.77a3.53,3.53,0,0,1,2-3C684.76,61.31,684.72,62.75,682.59,62.77Z"/><path class="cls-5" d="M677.59,69.77c.26-1.09.53-2.18,2-2C679.61,69.09,679,69.85,677.59,69.77Z"/><path class="cls-5" d="M671.6,78.79a1.5,1.5,0,0,1,1-2.05A1.76,1.76,0,0,1,671.6,78.79Z"/><path class="cls-5" d="M681.6,64.79a1.55,1.55,0,0,1,1-2C682.71,63.64,682.59,64.44,681.6,64.79Z"/><path class="cls-5" d="M670.58,79.88c0-.72.19-1.24,1.06-1.14Z"/><path class="cls-6" d="M672.65,196.8l-1.21,0C671.82,196.23,672.2,195.61,672.65,196.8Z"/><path class="cls-3" d="M479.6,236.53c3.63-7.78,7.42-15.5,10-23.71.47-1.5,2-3.33.77-4.61-1.48-1.56-3.41.14-5,.66-5.8,1.9-11.53,4-17.29,6.08l-1.35-1.18a219.36,219.36,0,0,1,25-9.59c3-1,4.09-.39,3,2.9-3.66,10.68-8,21-14,30.62Z"/><path class="cls-5" d="M466.74,213.77l1.35,1.18-18.35,8.85c3.5-5,9.58-5.84,14.24-9A12.82,12.82,0,0,1,466.74,213.77Z"/><path class="cls-5" d="M479.6,236.53l1.09,1.17c-2.08,3.2-3.11,7.23-7.06,9A49.46,49.46,0,0,1,479.6,236.53Z"/><path class="cls-6" d="M564,212.38a23.67,23.67,0,0,0-5.49-9.65C563.21,203.8,565,206.93,564,212.38Z"/><path class="cls-5" d="M449.78,223.75a7.74,7.74,0,0,1-4.94,2.74C445.53,223.85,447.64,223.77,449.78,223.75Z"/><path class="cls-5" d="M470.62,250.68c.34-1,.71-2,2.05-2C472.69,250,472,250.73,470.62,250.68Z"/><path class="cls-5" d="M472.65,248.69a1.63,1.63,0,0,1,1-2C473.73,247.53,473.63,248.33,472.65,248.69Z"/><path class="cls-5" d="M469.15,252.69l1.54-2.06C470.69,251.7,470.33,252.5,469.15,252.69Z"/><path class="cls-6" d="M487.25,143.75l-1.56,1.57A1.68,1.68,0,0,1,487.25,143.75Z"/><path class="cls-6" d="M701.51,156.92c-.09.49,0,1.21-.87.89Z"/></g></g></svg>