<svg xmlns="http://www.w3.org/2000/svg" viewBox="0 0 2630.94 941.78"><defs><style>.cls-1{fill:#fff;}</style></defs><title>maleylea bco grande</title><g id="Capa_2" data-name="Capa 2"><g id="Capa_1-2" data-name="Capa 1"><path class="cls-1" d="M504.76,267.9l13.88-19.43c11-3.64,14.84-12.24,15.69-23h0c4.69.27,6.56-2.19,6.56-6.56v.2c3.29-1.22,3.29-4,3.29-6.8l-.23.2c5.77.26,8.56-3.28,10-8.14,6.56-21.33,24-35.51,37.12-51.89C628,106.55,669,64.08,716.85,28.92c24.62-18.08,38.6-20.11,57.73-5.84,21.17,15.76,17.79,38.8,14.18,60.2-9.84,57.63-28.75,112.9-46,168.6q-36,115.74-71.94,231.3a122.84,122.84,0,0,0-2.69,14.37,6.21,6.21,0,0,0-2.2,7c0,.39,1,1,1.18.91,2.76-1.6,1.94-4.43,2.23-6.89,13.36-8.5,22-21.63,30.56-34.1,37-54.09,84.94-97.94,132-142.61a343.31,343.31,0,0,1,28-22.58c14-10.77,25.6-10.57,40.2,0,12.18,8.83,13.49,19.89,8.31,33.25C888,385.37,866.91,438,847.74,491.32c-17,47.2-31.9,95.18-31.11,146.25a107.68,107.68,0,0,0,1.48,14.57c1.87,12.08,7.74,16,19.3,9.85a34.56,34.56,0,0,1,12.5-3.28c10.8-1.18,22-.39,27.21,10.4,5.84,12-9.09,12.48-13.13,19.34-10.37,0-20.71.26-31.08,0a56.54,56.54,0,0,1-52.52-37.39,134.89,134.89,0,0,1-6.76-36.69c-3.8-68.47,19-130.54,46-191.68,7.75-17.66,15.79-35.22,24.52-54.75-12.64,4-11.72,15.1-17.66,21-7.58.3-11.12,6.57-15.49,11.07-50,52.51-94.89,109.36-139.16,166.7-10.87,14.08-20.16,29.9-36.11,39.55-27.07-.66-37.64-11.65-35.74-38.47a186.28,186.28,0,0,1,5.45-32.07C631,433.13,664.76,333.05,696.6,232.39c17.89-56.62,39.06-112.15,54.25-169.59,1.12-4.17,7.82-11.49-1.31-13.13-7.42-1.41-9,6.1-9.16,12.54-18.9,5.18-30.62,20.48-43.71,33-81.53,77.66-147.18,168.18-208.49,261.92A1720.59,1720.59,0,0,0,304.58,729c-3,8.34-5.71,16.84-16.18,18.58-23.5-10.21-24.65-12.38-19.17-38,2.62-12.21,5.18-24.45,8.07-36.59,35-147.37,82.38-291.3,122.49-437.22,11.39-41.39,24.13-82.65,25.74-126,.29-8.76,5.12-21.39-4.34-25.73-10.4-4.79-19.92,4.3-28.13,11.29C235.52,210.69,131.9,365,66.72,547A246.08,246.08,0,0,0,51,638.36c.33,9.85.52,18.08,10.8,23.2,4.59,2.3,10.4,7,8.83,12.67-2.27,8.08-10.28,2.79-15.59,4.24a69.53,69.53,0,0,0-7.62-2.92c-27.37-7.06-31-12.54-32.1-40.44-1.54-37.22,7.25-72.47,18.38-107.33C47.88,483.47,68.92,442.09,88.38,400c14.9-24.65,30.36-49,44.51-74.05,7.09-12.53,19.69-22.18,20.67-38h0c4.8.37,6.57-2.16,6.57-6.56h0c5.05-1.61,6.56-5.71,7.48-10.37A755.41,755.41,0,0,1,291.55,125.55c25.27-23.33,51.63-45,82.54-61.18,44.05-23,88.92,7.91,88,55.44-.95,48.41-12.24,94.95-24.58,141.13-14.45,54.22-30,108.15-45.23,162.14a37.09,37.09,0,0,0-2.37,16l.2-.26c-3.94,1.67-3.28,5.21-3.48,8.4-2.2,6.33-7,12-5.61,19.69,5.45-1.87,7.32-5.84,9.39-9.84,31-58.26,66.85-113.63,103.75-168.28,3.54-5.22,9-10.05,7.22-17.59v.19ZM378.29,476.09c.37-.2.86-.33,1-.62a2.07,2.07,0,0,0-.16-1.28l-1.48.85Z"/><path class="cls-1" d="M2146.31,162.87c.16-9,7.77-13.88,12.34-20,37.81-50.71,77.75-99.45,132.6-133.32C2306.51.11,2322-4,2339.07,5.1c18.51,9.84,26.06,25.86,21.37,46.44-8.74,38.4-27.87,72.21-48,105.32-68.79,113-145.17,220.6-237.76,315.78a125.71,125.71,0,0,1-11.23,9.23c-2.56.42-5.31.49-6.56,3.47h.16a34.47,34.47,0,0,1-18.71-4.39c-15.39-9.49-16.41-8.77-17.29,10.4-14,15.36-18,35.48-25.47,53.83-20,49.49-39.06,99.32-58.29,149.11-1.87,4.79-5,9.58-3.29,17.16,27.74-16.6,54.42-33.18,81.73-48.74,38.93-22.15,79-42.17,123.44-50.71,26.49-5.08,53.7-7.68,73.66,17.27,6.56,8,10.93,15.82-5.32,16.84h.39c-1.47-3.91-2.72-1.88-4,0-13.13-18.75-30.69-19.89-50.61-13.13a396.76,396.76,0,0,0-50.28,19.43c-27,9-50.78,24.55-75.49,37.91-25.7,13.85-50.68,29-76,43.65l-2.69,3.81h0c-3.28,0-6.56-.27-9.84,0-32.3.72-44.87-14.77-37-45.95a389.51,389.51,0,0,1,11.09-39.39c33.74-91.67,72.21-181.34,114.25-269.43q23.31-48.72,46.41-97.45c13.33-23,27.08-45.39,39.91-68.5C2123.89,198.42,2139.15,183.12,2146.31,162.87Zm58.19,95.58v.16a5.78,5.78,0,0,0,3.28-6.73h0c6.89-.19,7-4.92,6.57-9.84h0c8.69-.36,10.47-5.94,9.84-13.13h0c4.7.26,6.57-2.23,6.57-6.57h0a9.18,9.18,0,0,0,6.56-9.84h0c3.28-1.15,3.64-3.78,3.28-6.57h0c7,0,7.12-4.79,6.57-9.84h0c3.9.46,5.87-1.94,7.74-4.83,12.9-20.15,27.93-39,38.34-60.72,16.05-26.58,30.65-53.89,38.3-84.25,1.61-6.57,5.15-15.59-2.16-19.17-6.57-3.28-12.9,3.54-17.86,8.66a13.14,13.14,0,0,0-1.74,4.47c-38.3,23.79-68,56.19-95.74,91.05-70.53,88.94-119.37,190.36-167.39,292.11-2.79,6-6.57,12.37,1.18,17.4,8.53,5.58,14.64-2.11,17.89-6.57,11.19-16,25.83-28.88,37.64-44.11,32.83-42.34,65.06-85.11,97.52-127.71Z"/><path class="cls-1" d="M1650,669.57c-17.85,64.76-46,124.53-89.18,176.32-20,24.06-41,47.82-69.81,62.36l-5.15,3.52.26-.17c-5.74-1.08-10.83,1.51-15.69,3.68-27.14,12-55.63,14.21-84.78,12.73-43.06-2.2-68.92-29.77-63.51-69.28,1.64-12.21,6.27-24,9.52-36.11,22.58-41.55,59.41-68.92,96.63-95.48,56.94-40.73,120.52-67.51,187.08-87.57,3.12-1,6.57-1,8.6-4,17.63.59,13.56-14.5,15.53-23.43,9.84-44.93,7-90.69,6.92-136.21,0-4.33,2.69-11.72-4-12.15-5.61-.32-8.57,5.81-9,11.79,0,2.16-.33,4.33-.52,6.56-13.13,1-14.35,14.41-21.73,21.4-6.57,6.11-10.14,15.1-19.7,17.59-16.41-2.92-25.86-13.65-27-29.37-1.38-18.51,7.38-34.92,9.85-52.52,5.71-5.22,8.14-17.33,19.85-10.47,10.11,5.94,11.29,14.48,6.4,24.85-2.1,4.5-5.58,9.85.73,14.44q-1.09,1.92-2.24,3.84a5.53,5.53,0,0,0-5.12,5.15c.79,2.73.2,10.34,5.16,3.94,9-11.62,19.23-23,21-38.79v.16l3.28-2.95c15.37-17.4,26.59-15.49,36.44,6.56a122.84,122.84,0,0,1,9.45,44.41,586.64,586.64,0,0,1-6.73,120.46c-2.49,15.36,3.05,16.77,16,15a382.14,382.14,0,0,1,115.53.65c46.38,7.88,76.25,42.67,71.62,84.52-1.38,12.44.92,29.87-18.68,33.41-9.09-16.64,3.65-31.47,3.91-47.33,3.28-17.88-2.5-28.16-18-31.67-15.85-14.77-35.81-15.33-55.8-17.53-40-4.39-78.77,1.91-117.4,10.47A10.77,10.77,0,0,0,1650,669.57ZM1545,822.79l-.23.16c4.63,0,6.79-2.17,6.73-6.56v.16c3.28-1.18,3.54-3.81,3.28-6.57h0c13-5.71,16.41-18.93,23.17-29.53,19.7-31.45,34-65.45,46-100.5,3.71-10.8.23-12.64-9.84-9.52A720.5,720.5,0,0,0,1532,701.9a43.05,43.05,0,0,0-9.06,3.28c-15.29,10.31-35.25,13.13-46.73,29.54v-.16c-7,0-14,.33-16.22,9-12.27,9-24.52,18.12-36.82,27.08-34.89,25.34-62.89,55.8-73.62,99-5.75,23,7.51,40.21,30.75,41.91A156.6,156.6,0,0,0,1458.16,896c33.25-15.13,57.84-40.37,81.73-66.66,3.87-.62,5-3.25,5-6.76Z"/><path class="cls-1" d="M1267,202.32a34.84,34.84,0,0,0,5.64-5.81c3.71-6,8.54-8.83,15-5.12s6.11,10.11,3.65,15.89c-5.55,13.13-11.36,26.06-17.6,38.79-31.93,65.19-66.43,129.22-88.06,199-6.56,21.43-12,43-11.75,65.64,0,10.51,4.37,11.46,11.69,6.21,29.54-21.27,61.24-39.39,84-69.29,8.89-11.65,21.53-20,34.3-27.54,11.45-6.82,21.56-2.75,30.09,4.6s5.78,17.1,1.91,25.76c-10.11,22.62-28.29,38.5-46.61,54.13-3.28,2.85-10.47,2.42-8.17,9.84a13.13,13.13,0,0,0,13,10.44c11,.29,21.6,0,31.94-5.22,28.13-13.75,53.27-32.1,78.77-49.89a85,85,0,0,1,13.65-9c5.16-2.3,9.85,1,12.71,5s-1,6.92-3.61,9.45A403.4,403.4,0,0,1,1348,533.79c-1.58-2.86-2.4-1.67-3,.59l.2-.2c-9,1.74-18,3.29-27,5.22-32.36,6.3-52.51-4.43-61.54-32.43-1.31-4.13,1.91-11.29-5.55-11.52-6.56-.23-8,6.34-10.1,11.26l-44,30.46c-2.23-3.61-5.35-2.43-8.57-1.81-22.71,4.34-37.88-5.54-43.26-27.5-1-4,2.73-11.55-4.69-11.32-5.45,0-8.63,5.87-9.39,11.78-15.46,11-30.85,22.15-46.41,33.05-5.25,3.68-9.85,8.73-16.84,9.22-3.28,0-6.56-.19-8.43,3.29h.2c-5.85-1-10.44,2.49-15.6,4.13-33.11,10.54-66.79,2.73-71.15-42.34-1.12-11.75,2.46-22.61,1-33.9-.53-4,2.33-10.24-2.86-11.56-5.67-1.47-7.81,4.47-9.61,9a45.34,45.34,0,0,0-1.51,6.37c-16,12.24-24.78,30.72-38.27,45.13-5.81,6.2-9.69,14.61-19.17,16.41l-3.78,3.51h.23a68.56,68.56,0,0,1-8.1-.32c-29.54-2.7-39.88-18.48-31.15-46.41,2.89-9.23,8.83-17.4,9.45-27.38,17.13-21.59,37.48-36.66,66.86-30.09,8.5,2,13.13,0,18.41-5.65,4.89-5,11.16-8.73,16.41-13.59a20,20,0,0,1,24.06-3.74c8.47,3.87,11.49,11.59,11.46,20.19,0,21.79-3.68,43.35-3.29,65.28.73,43.19,4.89,46.24,42.67,25.57A505.08,505.08,0,0,0,1133.62,475c12.93-4,13.36-15.23,16-25.9,18.81-75.65,57.57-142,96.43-208.48C1253.32,228.22,1264.12,217.39,1267,202.32Z"/><path class="cls-1" d="M2184.94,458.79c11.42-16.41,27-28.16,43.78-38.5,10.47-6.56,19.69-3.54,28.46,3.87s8.14,17.43,3.28,26.79a147.75,147.75,0,0,1-47.16,53.3c-4,2.89-9.85,3.28-7.52,10.08,1.77,5.38,4.82,9.84,11.29,10.43a65.28,65.28,0,0,0,39.39-8.07,661.07,661.07,0,0,0,89.66-59.93c10.34-8.11,22.06-14.41,34.7-10.93,20,5.51,32.52-4.86,45.23-16.84,5.61-5.28,11.48-10.24,20.25-7.78,11.39,3.28,17.72,9.85,17,22.52q-1.87,31-3.28,62a170.37,170.37,0,0,0,.26,19.7c1.61,22.15,7.45,25.89,27.77,16.41,40.27-18.87,76.11-44.67,110.77-72.21,4.27-3.28,8.76-6.56,12.93-10,6.27-5.22,12.93-4.33,17.43,1.12,5.05,6.07-2,9.84-5.51,13.12a412.18,412.18,0,0,1-93.05,73.49l-4.4,3.55.29-.23c-8.76-1.22-15.26,5-23,7-43.29,11.46-74.47-1.34-72.7-51.43.46-12.7,0-25.44,0-39.09-11.49,4.43-12.87,12.7-13.36,21.53-7.71-1.08-9.49,5.61-13.13,10-15.49,19.1-28.75,40.14-48.77,55.24-24.06-7.22-50.91-12-39.82-48.28-8,.33-11.88,3.28-13.12,9.42l-2.86,2.92.26-.16-25,13.12-4.8,3.52.27-.2c-9-1.12-16.94,3.68-25.57,4.63-13.66,1.51-28.36,4.3-40.41-2.5-15.32-8.66-22.64-23.27-23.79-41.94C2179.92,481.87,2189.27,471.23,2184.94,458.79Z"/><path class="cls-1" d="M393.2,95.39c8.2-7,17.72-16.08,28.12-11.29,9.46,4.33,4.63,17,4.34,25.73-1.61,43.36-14.35,84.62-25.74,126-40.1,145.93-87.47,289.85-122.49,437.22-2.89,12.15-5.45,24.39-8.07,36.6-5.48,25.6-4.33,27.77,19.17,38-3,13.36-12.54,11.69-21.86,9.13-11.06-3-16-10.18-13.79-22.12q10.77-58.75,26.95-116.23C318,483.83,356.76,349.27,394.94,214.47a409.68,409.68,0,0,0,16.67-101.39C411.94,99.43,408.46,91.91,393.2,95.39Z"/><path class="cls-1" d="M740.52,62.37c0-6.56,1.74-13.95,9.15-12.54,9.13,1.71,2.43,9,1.32,13.13-15.2,57.44-36.37,113-54.26,169.59-31.84,100.67-65.64,200.74-91.21,303.31a187.3,187.3,0,0,0-5.45,32.06c-1.9,26.82,8.67,37.82,35.74,38.47-7,12.6-17.33,15.39-30.49,10.41-14.7-5.58-21.63-16-20.25-31.64a363.82,363.82,0,0,1,12.84-64C635.58,384,681.93,249.45,725.42,114,731,96.93,735.53,79.54,740.52,62.37Z"/><path class="cls-1" d="M2073.74,285.33q-23.17,48.74-46.41,97.45c-42.11,88.09-80.52,177.76-114.26,269.43A392.14,392.14,0,0,0,1902,691.6c-7.88,31.31,4.69,46.8,37,45.95h9.85c-5.45,6.56-13.13,9.35-20.88,11.68-25.3,7.65-48.15-12.8-42.24-38.4,13.36-57.7,37.42-111.59,60.13-166,35.58-85.11,74-168.94,117-250.63,2.26-4.3,4.89-8.47,7.35-12.7Z"/><path class="cls-1" d="M826.48,389.05c5.94-5.88,5-17,17.65-21-8.73,19.7-16.77,37.09-24.51,54.75C792.8,484,770,546,773.67,614.5a134.13,134.13,0,0,0,6.76,36.69,56.52,56.52,0,0,0,52.51,37.39H864c-31.9,30.26-88.78,12.27-99.74-32.5-8.7-35.51-5.88-71.45,1.71-106.93C778.1,492.66,802.42,440.9,826.48,389.05Z"/><path class="cls-1" d="M88.38,400c-19.4,42-40.5,83.43-54.65,127.74C22.6,562.64,13.81,597.89,15.35,635.11c1.12,27.9,4.73,33.38,32.23,40.5a73.84,73.84,0,0,1,7.62,2.92c5.48,9.85,3.48,13.76-8.37,12.61C9.25,687.49-.86,677.12.06,639.05,1.43,585.35,19,535.53,39.44,486.79c13.13-31,27.05-61.77,45.26-90.29Z"/><path class="cls-1" d="M1851.21,697.08c-.27,15.85-13.13,30.69-3.91,47.33-2,4.59-1.74,12.5-9.45,10.47-6.57-1.74-8.47-8.41-7.22-14.77,1.93-9.59,5.35-18.88,6.89-28.49,3.28-20.19-2.23-30.26-21.11-39.39-28.06-13.62-58.39-12.44-88.39-12.44-26.25,0-52,5.22-77.88,9.65a10.77,10.77,0,0,1,9.85-11.06c38.69-8.57,77.39-14.87,117.4-10.47,20.12,2.2,40.07,2.76,55.8,17.53A77.8,77.8,0,0,1,1851.21,697.08Z"/><path class="cls-1" d="M1331.7,822.62c-3.28,12-7.88,23.8-9.52,36.11-5.41,39.38,20.45,67.08,63.51,69.28,29.15,1.48,57.64-.72,84.78-12.73,4.86-2.17,9.85-4.76,15.69-3.68-37.38,27.47-80,34.92-124.33,27.44-23.27-3.91-45.95-15.49-52.22-41.72C1302.82,868.93,1310.5,843.53,1331.7,822.62Z"/><path class="cls-1" d="M1267,202.32c-2.69,15.07-13.49,25.9-20.84,38.44-38.87,66.43-77.63,132.83-96.44,208.48-2.65,10.67-3.08,21.89-16,25.9,5.12-42.93,23.24-81.4,41.78-119.61,24.26-50,53.07-97.48,82.38-144.64C1260,207.25,1261.76,203,1267,202.32Z"/><path class="cls-1" d="M2417.38,488.66c.49-8.83,1.87-17.1,13.36-21.53,0,13.65.39,26.26,0,39.09-1.77,50.09,29.54,62.89,72.7,51.43,7.78-2.07,14.28-8.24,23-7a113.63,113.63,0,0,1-53.3,23.53c-31.51,4.76-54.84-14.61-55.79-46.15C2416.76,514.92,2417.28,501.79,2417.38,488.66Z"/><path class="cls-1" d="M959.77,485.77a44,44,0,0,1,1.51-6.37c1.8-4.49,3.93-10.43,9.61-9,5.19,1.32,2.33,7.52,2.86,11.56,1.51,11.29-2.07,22.15-1,33.9,4.36,45.07,38,52.88,71.15,42.34,5.16-1.64,9.85-5.15,15.59-4.13-23.76,25.4-67.25,27.7-88.62,5.21-11.71-12.27-12.27-27.37-12.53-42.66C958.12,506.32,959.24,496,959.77,485.77Z"/><path class="cls-1" d="M1633.14,482.1c.19-2.17.39-4.34.52-6.57.4-6,3.28-12.11,9-11.78,6.57.42,3.94,7.81,4,12.14,0,45.53,3,91.28-6.92,136.21-2,8.93,2.1,24-15.53,23.44C1634.32,584.86,1634.58,533.53,1633.14,482.1Z"/><path class="cls-1" d="M2184.94,458.79c4.36,12.44-5,23-4.27,35.65,1.15,18.67,8.47,33.28,23.8,41.94,12,6.8,26.75,4,40.4,2.5,8.63-1,16.41-5.75,25.57-4.63-23.67,18.71-49.66,24.81-77.63,11.55-25.76-12.21-32.82-33.74-22.54-61.74A83.36,83.36,0,0,1,2184.94,458.79Z"/><path class="cls-1" d="M1240.88,506.78c2.14-4.93,3.45-11.49,10.11-11.26,7.45.23,4.24,7.38,5.55,11.52,8.89,28,29.18,38.73,61.54,32.43,9-1.77,18-3.48,27-5.22-21.1,17.43-44.8,23.47-70.93,14.08C1255,541.57,1242.2,528.44,1240.88,506.78Z"/><path class="cls-1" d="M501.38,271.54c1.77,7.55-3.68,12.38-7.22,17.6-36.9,54.64-72.7,110-103.75,168.27-2.07,3.88-3.94,7.85-9.39,9.85-1.38-7.75,3.28-13.42,5.61-19.69,3-2,3.05-5.29,3.48-8.41l-.2.27c9.85-9,14.74-21.27,21.4-32.3,25.24-41.91,52-82.84,79.73-123.08A158.48,158.48,0,0,1,501.38,271.54Z"/><path class="cls-1" d="M869,476.58c-.62,9.85-6.56,18.15-9.45,27.37-8.73,27.94,1.67,43.72,31.15,46.41,2.69.27,5.41.23,8.1.33-10.47,12.57-23,15.23-38.5,8.21-13.49-6.14-20.22-16.25-17.36-31.18C846.66,508.22,854.08,490.46,869,476.58Z"/><path class="cls-1" d="M1574.55,439.16c-2.63,17.63-11.39,34-9.85,52.52,1.19,15.72,10.7,26.45,27,29.37-13.13,17.43-26.06,16.42-37.25-3.28C1544.32,500.54,1557,451.24,1574.55,439.16Z"/><path class="cls-1" d="M1131,508.39c.75-5.91,3.94-11.62,9.39-11.79,7.41-.23,3.74,7.35,4.69,11.33,5.38,21.95,20.55,31.83,43.26,27.5,3.28-.62,6.33-1.8,8.57,1.81-9.85,7.54-20.39,13.12-32.83,12.4C1144.09,548.63,1133,534.45,1131,508.39Z"/><path class="cls-1" d="M2302.54,515.05c1.34-6.17,5.25-9.09,13.13-9.42-11.1,36.3,15.75,41.06,39.81,48.28-12.74,11.68-26.78,10.63-40.8,3.28-13.42-7-17.23-18.74-14-33.21a19.2,19.2,0,0,0-.82-6.21l-.27.17C2302.7,519,2302.24,516.66,2302.54,515.05Z"/><path class="cls-1" d="M2103,652.41A397.45,397.45,0,0,1,2153.17,633c19.92-6.8,37.45-5.65,50.61,13.13h3.57c-1.41,9.12-5.48,18.28-14.54,8-15.62-17.75-32.82-13.12-51.07-8-11.52,3.29-23,7-34.43,10.51Z"/><path class="cls-1" d="M2103,652.41l4.43,3.94c-49,22.51-96.14,48.74-142.78,75.85a37.37,37.37,0,0,1-7.61,2.39l-5.58-.62c25.31-14.61,50.28-29.8,76-43.65C2052.17,677,2075.94,661.37,2103,652.41Z"/><path class="cls-1" d="M2073.74,285.33l-3.58-3.68c19.1-41.35,44.8-78.77,70.76-115.92,1-1.48,3.55-1.91,5.39-2.86-7.16,20.25-22.42,35.55-32.66,54C2100.81,239.94,2087.06,262.58,2073.74,285.33Z"/><path class="cls-1" d="M88.38,400,84.9,396.5A664.27,664.27,0,0,1,153.56,288c-1,15.86-13.58,25.51-20.67,38C118.74,351.2,103.28,375.39,88.38,400Z"/><path class="cls-1" d="M2021.09,491.12c.79-19.17,1.9-19.89,17.3-10.4a34.43,34.43,0,0,0,18.71,4.39C2047.09,499.1,2035,500.74,2021.09,491.12Z"/><path class="cls-1" d="M1620.34,442.12c-1.78,15.72-12,27.17-21,38.79-5,6.4-4.36-1.21-5.15-3.93l5.12-5.16c.75-1.28,1.51-2.56,2.23-3.84C1607.77,459.51,1611.05,448.55,1620.34,442.12Z"/><path class="cls-1" d="M534.2,225.63c-.86,10.6-4.66,19.2-15.69,23A52,52,0,0,1,534.2,225.63Z"/><path class="cls-1" d="M553.92,204.52c-1.47,5-4.26,8.4-10,8.14C545.72,208.1,547.92,204,553.92,204.52Z"/><path class="cls-1" d="M167.45,271.15c-.82,4.66-2.43,8.76-7.49,10.37a8.45,8.45,0,0,1,6.24-10.17A8.79,8.79,0,0,1,167.45,271.15Z"/><path class="cls-1" d="M540.76,219.06c0,4.47-2,6.93-6.56,6.57C535.05,222.31,536.53,219.29,540.76,219.06Z"/><path class="cls-1" d="M160.1,281.42c0,4.47-1.88,7-6.57,6.57C154.32,284.54,155.37,281.09,160.1,281.42Z"/><path class="cls-1" d="M1059.35,554.07c1.8-3.61,5.15-3.28,8.43-3.28C1065.62,553.42,1063.15,555.39,1059.35,554.07Z"/><path class="cls-1" d="M544.11,212.46c0,2.83,0,5.58-3.28,6.8A6.56,6.56,0,0,1,544.11,212.46Z"/><path class="cls-1" d="M2056.93,485.18c1.22-3,4-3.05,6.57-3.48A5.46,5.46,0,0,1,2056.93,485.18Z"/><path class="cls-1" d="M1951.41,734l5.58.62a7.85,7.85,0,0,1-8.27,3.29Z"/><path class="cls-1" d="M1344.86,534.45c.56-2.27,1.38-3.45,3-.59A5.94,5.94,0,0,1,1344.86,534.45Z"/><path class="cls-1" d="M2270.18,534.45l4.79-3.52Z"/><path class="cls-1" d="M504.76,267.9l-3.48,3.84A3.84,3.84,0,0,1,504.76,267.9Z"/><path class="cls-1" d="M898.55,550.79l3.78-3.51Z"/><path class="cls-1" d="M2526.12,550.86l4.4-3.55Z"/><path class="cls-1" d="M1623.55,439.33l-3.28,2.95Z"/><path class="cls-1" d="M1485.9,911.67l5.15-3.52Z"/><path class="cls-1" d="M669.39,498.57c-.29,2.46.53,5.29-2.23,6.89a2.3,2.3,0,0,1-1.18-.91,6.21,6.21,0,0,1,2.2-7Z"/><path class="cls-1" d="M378.29,476.09l-.65-1,1.48-.85c0,.42.29.91.16,1.28S378.66,475.92,378.29,476.09Z"/><path class="cls-1" d="M390.11,439c-.43,3.12-.49,6.36-3.48,8.4C386.83,444.19,386.17,440.64,390.11,439Z"/><path class="cls-1" d="M2289.38,126.54c11.19-23.9,24-47.2,29.08-73.43,1.05-5.44,7.05-17.62-8.83-12.76a13.06,13.06,0,0,1,1.74-4.47c5-5.12,11.25-11.88,17.85-8.66,7.32,3.58,3.78,12.73,2.17,19.17-7.55,30.36-22.26,57.66-38.31,84.25C2291.84,129.29,2290.62,128,2289.38,126.54Z"/><path class="cls-1" d="M2289.38,126.54c1.24,1.38,2.46,2.75,3.7,4.1-10.4,21.76-25.43,40.57-38.33,60.72-1.87,2.89-3.84,5.28-7.75,4.82C2258.88,171.6,2275.72,150,2289.38,126.54Z"/><path class="cls-1" d="M2214.15,242.14A25,25,0,0,1,2224,229C2224.62,236.33,2222.85,241.77,2214.15,242.14Z"/><path class="cls-1" d="M2207.62,252a13.34,13.34,0,0,1,6.56-9.84C2214.64,247.06,2214.51,251.78,2207.62,252Z"/><path class="cls-1" d="M2230.62,222.47c-.88-5.35.92-9,6.57-9.84A9.17,9.17,0,0,1,2230.62,222.47Z"/><path class="cls-1" d="M2240.44,206a11.6,11.6,0,0,1,6.56-9.85C2247.56,201.24,2247.43,206,2240.44,206Z"/><path class="cls-1" d="M2224,229c.85-3.58,1.74-7.16,6.56-6.57C2230.66,226.77,2228.66,229.27,2224,229Z"/><path class="cls-1" d="M2204.37,258.61a4.93,4.93,0,0,1,2.55-6.48,6.28,6.28,0,0,1,.73-.25A5.78,5.78,0,0,1,2204.37,258.61Z"/><path class="cls-1" d="M2237.19,212.66a5.09,5.09,0,0,1,3.09-6.5l.19-.06C2240.83,208.89,2240.44,211.51,2237.19,212.66Z"/><path class="cls-1" d="M2201,262.19c0-2.36.62-4.07,3.48-3.74Z"/><path class="cls-1" d="M2207.81,645.94h-4C2205.09,644.07,2206.34,642,2207.81,645.94Z"/><path class="cls-1" d="M1574.19,776.34c11.91-25.53,24.35-50.87,32.82-77.82,1.54-4.92,6.57-10.93,2.53-15.13-4.86-5.12-11.19.46-16.41,2.17-19,6.23-37.85,13.13-56.75,20l-4.43-3.87a722.29,722.29,0,0,1,82-31.48c9.85-3.28,13.43-1.28,9.85,9.52-12,35.06-26.26,68.93-45.95,100.5Z"/><path class="cls-1" d="M1532,701.64l4.43,3.87-60.23,29c11.49-16.41,31.45-19.17,46.74-29.54A42.41,42.41,0,0,1,1532,701.64Z"/><path class="cls-1" d="M1574.19,776.34l3.58,3.84c-6.83,10.51-10.21,23.73-23.18,29.54A162.55,162.55,0,0,1,1574.19,776.34Z"/><path class="cls-1" d="M1851.21,697.08a77.84,77.84,0,0,0-18-31.68C1848.61,668.92,1854.49,679.19,1851.21,697.08Z"/><path class="cls-1" d="M1476.31,734.4a25.38,25.38,0,0,1-16.21,9C1462.37,734.72,1469.29,734.46,1476.31,734.4Z"/><path class="cls-1" d="M1544.72,822.79c1.11-3.29,2.33-6.57,6.72-6.57C1551.51,820.55,1549.24,823,1544.72,822.79Z"/><path class="cls-1" d="M1551.38,816.25a5.34,5.34,0,0,1,3.28-6.56C1554.92,812.45,1554.59,815.07,1551.38,816.25Z"/><path class="cls-1" d="M1539.89,829.38l5-6.76C1544.94,826.13,1543.76,828.76,1539.89,829.38Z"/><path class="cls-1" d="M1599.3,471.82l-5.12,5.16A5.51,5.51,0,0,1,1599.3,471.82Z"/><path class="cls-1" d="M2302.54,515.05c-.3,1.61,0,4-2.86,2.92Z"/></g></g></svg>