<svg xmlns="http://www.w3.org/2000/svg" viewBox="0 0 366.6 224.37"><defs><style>.cls-1{fill:#cab9a0;}.cls-2{fill:#cab8a0;}</style></defs><title>ML</title><g id="Capa_2" data-name="Capa 2"><g id="Capa_1-2" data-name="Capa 1"><path class="cls-1" d="M225.59,51.33C217,58.1,210.75,66.9,203.9,75.21c-14.07,17.07-26.07,35.77-41.34,51.87a30.5,30.5,0,0,1-9.06,7c-4.82,2.27-6.2,1.38-6.66-3.91-1-11.3.13-22.51,1.57-33.71,2-15.31,4.45-30.54,7.38-45.69a27.68,27.68,0,0,0,0-3.76c-2.45,4.38-4.16,7.72-6.13,10.91-18.94,30.59-39.09,60.34-64.15,86.33-12.48,13-26.89,23.3-45,27.27-19,4.16-35.28-6.75-39.57-25.66-4.54-20,7.87-35.14,22.15-43.31,8.51-4.88,17.54-8,27.61-5.94,1.28.26,2.51.74,4.15,1.24-2.32,3.1-5.43,3.44-8.45,3.79-18.21,2.12-28.51,22-23.47,38.72,4.54,15,20.8,21.09,36.76,13.82,15.11-6.88,26.68-18.17,37-30.59C119.73,96,138.48,65.49,157.16,35c3.2-5.22,6.6-6.82,11.75-7.28,3.48-.3,7-.5,10.41-1.06,4-.65,5,1,4.45,4.67-1.88,13.31-3.64,26.64-5.41,40Q177,81.42,175.78,91.54c-.11.91-.47,2.12.66,2.65s1.8-.53,2.53-1.13c7.74-6.4,13.9-14.3,20.37-21.87,11.46-13.4,23-26.74,33.87-40.62,7.73-9.91,18.09-9.28,28.55-8.88,2.89.11.88,2.56.4,3.69-4.41,10.41-9,20.77-13.47,31.13Q232.07,94.7,215.48,132.9c-1.35,3.13-2.92,4.86-6.62,4.43a84.08,84.08,0,0,0-11.45-.46c-4.59.08-5.25-1.48-3.5-5.65q10.26-24.34,20-48.93C218,72.12,222.76,62.23,226,51.72c.36-.24.74-.5.18-.9C226.12,50.78,225.79,51.15,225.59,51.33Z"/><path class="cls-1" d="M264.91,177.54c-26.58.36-51.33-2.81-76.17-4.79-16-1.28-32.07-3.65-48.24-1.4a49.83,49.83,0,0,0-17.5,5.37c-12.8,7-14.14,23.19-2.72,32.41,17.12,13.81,45.12,12.85,61.55-2.45,5.08-4.73,10.87-6.77,17.53-7.22,3.31-.22,6.61-.52,9.92-.84,3.58-.35,3.52,1.23,2.09,3.72a26.24,26.24,0,0,1-10.64,10.28c-21.56,11.32-44.36,14.77-68.07,9-20.77-5.07-26.27-21-24.12-39.92,2-17.89,15.19-25.11,30.74-29,13.94-3.51,28.21-3.58,42.53-3.43s28.55,1.31,42.81,2.26c18.4,1.22,36.73,3.26,55.15,4.16,16.31.8,32.56,1.14,48.64-2.24,10.25-2.15,19.17-6.5,24.81-16,5-8.47,5.06-17.57-.15-23.22a21.49,21.49,0,0,0-25.61-4.55,101.12,101.12,0,0,0-12,8c-2.85,2.08-4.23,2.15-4.53-1.91a25.31,25.31,0,0,1,23.87-27.29c23.44-1.21,36.45,15.32,30.29,38.2-6.9,25.64-25,39.06-49.36,45.69C298.56,177.05,281,178,264.91,177.54Z"/><path class="cls-2" d="M342.41,2.52c-4.29,1.3-7.08,2.31-10,3-8.16,1.93-13.81,6.9-17.71,14.14-19.26,35.73-37.3,72-50.71,110.42-2.94,8.43-2.83,8.46-11.61,8.39-3.83,0-7.67-.21-11.48,0s-4.65-.92-3.39-4.64c4.46-13.24,10-26.06,15.57-38.84,8.63-19.62,17.21-39.26,26.11-58.75,4.28-9.38,9.26-18.38,16.9-25.67C305.39,1.7,316.53-.74,328.76.18A55.48,55.48,0,0,1,342.41,2.52Z"/></g></g></svg>