<svg xmlns="http://www.w3.org/2000/svg" viewBox="0 0 436.21 505.8"><defs><style>.cls-1{fill:#fefdfd;}.cls-2{fill:#d6c5b1;}.cls-3{fill:#d6c6b1;}</style></defs><title>music</title><g id="Capa_2" data-name="Capa 2"><g id="Capa_1-2" data-name="Capa 1"><path class="cls-1" d="M435.32,179.83c0,53.13-.24,106.25.07,159.37.29,47.44-29.12,70.87-73.6,82.41a82.25,82.25,0,0,1-48-2.09c-38.32-13.12-51.64-51.54-27.43-84,25.07-33.63,59.43-47.8,101.13-39,14.32,3,17.43-.58,17.31-14.56q-.92-112.9-.1-225.8c.08-12.6-2-16.11-15.26-12.13Q282.91,76.09,175.9,106.56c-11.46,3.28-14,9.4-13.93,20.2q.51,143.16.25,286.32c0,62.12-57.79,105.67-118.24,89.23C2.26,491-13.29,450.44,12.74,415.94,35.92,385.23,67.67,370.67,107,377c23.29,3.76,23.26,3.94,23.29-19.4.11-85.6.41-171.2.09-256.8,0-10.07,2.67-14.59,12.59-17.47Q282.41,43,421.5,1.49c12.87-3.85,14.81-.34,14.71,11.58-.49,55.59-.22,111.18-.22,166.76Zm-353,235.42c-16.57,0-31,5.35-41.55,18.46-11.62,14.48-6.69,31.25,10.65,38,15.31,5.93,30,3.18,44-4.17,14.83-7.78,22.65-21.19,19.83-32.86C112.4,422.79,99.66,415.3,82.35,415.25Zm280.1-86c-17.09-.08-32.8,6.79-41.7,18.22-11.54,14.84-7.31,31.17,10.13,38.06,15.8,6.24,31.08,3.48,45.22-4.77,11.9-6.93,21.7-16.24,18.91-31.82C392.82,336.73,379.71,329.33,362.45,329.25Z"/><path class="cls-2" d="M82.35,415.26c17.31,0,30.05,7.53,32.91,19.39,2.82,11.67-5,25.08-19.83,32.86-14,7.35-28.67,10.1-44,4.17-17.34-6.72-22.27-23.49-10.65-38C51.32,420.6,65.78,415.29,82.35,415.26Z"/><path class="cls-3" d="M362.45,329.25c17.26.08,30.37,7.48,32.56,19.69,2.79,15.58-7,24.89-18.91,31.82-14.14,8.25-29.42,11-45.22,4.77-17.44-6.89-21.67-23.22-10.13-38.06C329.65,336,345.36,329.17,362.45,329.25Z"/></g></g></svg>