<svg xmlns="http://www.w3.org/2000/svg" viewBox="0 0 272.22 351.93"><defs><style>.cls-1{fill:#fff;}.cls-2{fill:#ad9577;}.cls-3{fill:#ac9476;}.cls-4{fill:#ad9678;}</style></defs><title>regalo</title><g id="Capa_2" data-name="Capa 2"><g id="Capa_1-2" data-name="Capa 1"><path class="cls-1" d="M166.42,114.39c.2-.18.53-.55.58-.52.57.4.18.66-.18.91Z"/><path class="cls-2" d="M139.14,243.9c0-48.1,0-82.24,0-116.38,0-7.45.58-8.38,8.08-8.85,6.64-.43,13.32-.25,20-.12q39.47.78,78.91-.09A47.82,47.82,0,0,1,259.94,120c6.19,1.69,10.06,5.54,11.22,12a85.85,85.85,0,0,1,.61,22.41c-.65,7.72-4.77,13.17-12.63,14.72-5,1-6.21,3.41-6.19,8.47.24,49,.13,97.92.12,146.88a81.05,81.05,0,0,1-.92,12.92c-1.29,8-5.15,12.09-13.15,13.48a85.54,85.54,0,0,1-14.92,1.06c-25.47,0-50.93-1-76.41-.36-6,.14-7.27-1.31-7.59-7.76C138.18,305.87,139.43,267.9,139.14,243.9Zm8.7,12.61c0,27,.09,53.93-.1,80.9,0,4.24.85,5.65,5.42,5.61,23.64-.21,47.28,0,70.91,0a106.9,106.9,0,0,0,11.47-.22c6.41-.66,8.38-3,8.57-9.27,1.57-52.59.88-105.19.54-157.79,0-3.73-.85-5.2-5-5.2q-43.44,0-86.88-.44c-3.89,0-5.09,1-5.07,5C147.92,202.24,147.84,229.37,147.84,256.51ZM202.66,127.1c-16.49,0-33,.19-49.47-.13-4.58-.08-5.58,1.34-5.41,5.6.31,8,.28,16-.05,24-.18,4.24.81,5.65,5.4,5.62,32.15-.22,64.29-.11,96.44-.14,2.15,0,4.29-.43,6.45-.56,4.75-.29,6.77-3.16,6.92-7.54.18-5,.19-10,.13-15-.1-9.22-2.35-11.71-11.45-11.8C235.3,127,219,127.08,202.66,127.1Z"/><path class="cls-3" d="M132.32,235q0,54,0,107.92c0,7.74-1.13,9.15-9,8.82-28-1.18-55.95-.11-83.92-.7-14.84-.32-19-4.05-20.33-18.65-1.69-17.94-.23-35.94-.42-53.91q-.37-34.2-.86-68.41c-.16-11.65-.5-23.31-.57-35,0-3.13-.67-4.61-4.16-5.32-7.5-1.52-12-6.59-12.59-14.2-.59-8-.87-16,.82-23.89,1.75-8.13,6.14-12,14.47-12.59,3.64-.25,7.32-.19,11-.11,2.25,0,3.82,1,3.67,3.65-.14,2.45-1,4.33-3.7,4.43-3.15.12-6.32,0-9.48-.08-4.5-.08-7.29,2.06-8.07,6.49a69.06,69.06,0,0,0,.07,22.86c.54,3.51,3.35,4.91,6.43,5.37a62.17,62.17,0,0,0,9.46.53c31.31,0,62.62-.21,93.92-.11,4.12,0,5.43-.95,5.25-5.18-.36-8.31-.31-16.66,0-25,.12-3.83-.83-5.06-4.89-5-19.65.23-39.3.12-58.95.08-2.66,0-5.31-.41-8-.53C50,126.43,49,125,48.78,122.75c-.23-2.52,1.73-3.09,3.4-3.55a18.56,18.56,0,0,1,5-.36c19.48,0,39,0,58.45,0,2.66,0,5.31-.32,8-.48,6.74-.39,8.74,1.4,8.74,8.22Q132.35,180.81,132.32,235Zm-8.18,21.79c0-27.13-.09-54.28.09-81.41,0-4.09-1-5.3-5.19-5.27q-42.95.28-85.91,0c-4.76,0-6,1.07-6.07,6-.47,50.1,1.18,100.22-.8,150.31-.51,13,2.77,16.38,15.91,16.48,26,.2,51.94,0,77.91.13,3.94,0,4.12-1.7,4.11-4.77C124.1,311.09,124.14,284,124.14,256.81Z"/><path class="cls-4" d="M106.5,104c-7.15-6.27-14.68-11.72-21.3-18.29C73.06,73.67,63.14,60.24,59.89,43,57.55,30.63,58.65,18.63,68,9c13.55-13.89,36.9-11.4,50,5.14,10.43,13.11,15,28.73,19,44.6.52,2.05,1,4.11,1.66,6.81,2.76-2.27,3.76-5.1,5.17-7.58,6.82-11.9,15.83-21.44,29-26.24,10.65-3.89,20.86-2.91,29.25,5.21,8.55,8.27,9.85,18.58,6.09,29.52C203.34,80.59,193,90,180.75,97.72c-3.05,1.92-6.21,3.65-9.18,5.38.24,1.44,1.06,1.22,1.63,1.22q30,0,60,0a17.2,17.2,0,0,0,5.38-.85c6.33-2.13,8.11-6.8,5.54-13-1.19-2.83-4.69-6.34.56-8.71,3.1-1.4,6.55,1.5,8.06,6.3,4.09,13-4,24.24-19.35,24.69-27.13.8-54.29,1-81.43,0-2.5-.09-6.79,1.25-7.41-3-.59-4,2.78-5.81,5.91-7.09,10.62-4.35,21.46-8.21,30.68-15.35,7.16-5.55,13.56-11.81,18-19.85,5.2-9.5,4-18.69-3.18-25-7-6-14.8-5.69-22.43-2-15.11,7.42-23.57,20.55-29.26,35.78-1.34,3.58-2.19,7.33-3.4,11-1,3-2.56,5.66-6.3,5.21-3.95-.46-3-3.92-3.13-6.27-.89-13.12-1.3-26.28-5.35-39-3.8-11.87-8.91-23-18.58-31.35C96,5.92,81.19,6,72.63,16c-5.49,6.46-6.51,14.24-5.18,22.15A67.67,67.67,0,0,0,86.63,75.23a148.48,148.48,0,0,0,32.09,25.21,24.62,24.62,0,0,1,3.3,2.25c2.17,1.76,5,3.41,3.82,6.83-1.11,3.25-4.21,3.52-7.07,3.51-17.33,0-34.65-.22-52-.24-5.31,0-10.65,0-15.89,1.24-7.39,1.79-9.45,5.94-6.59,12.91,1.18,2.86,3.94,6.18-.29,8.73-2.79,1.67-6.46-1.25-8.14-6.11a18.41,18.41,0,0,1,13.88-24.44c7.9-1.61,15.92-1,23.9-1.09C84.62,104,95.56,104,106.5,104Z"/></g></g></svg>