<svg xmlns="http://www.w3.org/2000/svg" viewBox="0 0 1652.99 572.21"><defs><style>.cls-1{fill:#d8b875;}.cls-2{fill:#d8b876;}</style></defs><title>separador</title><g id="Capa_2" data-name="Capa 2"><g id="Capa_1-2" data-name="Capa 1"><path class="cls-1" d="M.12,572.21c-.56-2.85,1.59-4.17,3.27-5.72a1086.71,1086.71,0,0,1,111.35-90.1C184.51,426.93,258.83,385.53,337,350.92c86.38-38.23,175.79-67.31,267.67-88.87q77.28-18.15,156-28.75,73.27-9.9,147.07-14,67.41-3.7,134.87-2.39c41.63.82,83.2,3,124.66,6.83,82.45,7.6,164,20.62,244.51,40.25a1417.41,1417.41,0,0,1,172.39,53.62c22.06,8.47,43.86,17.59,65.29,27.57,1.83.86,4.35,1.5,3.24,4-1.3,2.95-3.48.46-4.89-.18-47.88-21.95-97.13-40.29-147.34-56a1481.06,1481.06,0,0,0-169.88-42.23c-47.43-8.92-95.19-15.64-143.22-20.64-77.66-8.1-155.51-10.45-233.5-8.53-36.45.9-72.84,3.24-109.18,6.48q-76.62,6.82-152.32,20.27a1600.31,1600.31,0,0,0-226.69,57.35,1408.71,1408.71,0,0,0-176.36,72.15c-72.53,35.66-141.22,77.5-205.49,126.52Q44.29,534.49,7.66,568.16c-1.31,1.2-3,2.14-3.54,4.05Z"/><path class="cls-1" d="M1164,192.39c31.69,4,63.27,8.78,94.8,13.91q77.85,12.66,154.75,30.14,118.62,26.75,234.43,63.8c.64.2,1.27.4,1.92.57,1.94.51,3.64,1.42,2.9,3.74-.87,2.73-2.79.74-4,.37-14.17-4.31-28.26-8.84-42.43-13.15q-114.2-34.66-231-59.25-81.33-17.13-163.55-29.27-58.27-8.62-116.88-14.58c-30.63-3.1-61.34-5.47-92.08-7.47q-96.81-6.28-193.78-4.63-69.2,1.13-138.22,6.49c-33.36,2.58-66.67,5.67-99.89,9.59q-76.35,9-152,22.69A2294,2294,0,0,0,192.15,268.4Q96.66,296,4.05,332.15c-1.12.44-2.83,2.26-3.75.13-1-2.3.6-3.38,2.79-4.27,21.59-8.76,43.52-16.62,65.47-24.41A2207.83,2207.83,0,0,1,316.24,232q92.49-21.08,186.4-34.58,68.19-9.82,136.82-16,52.24-4.65,104.63-7c34.62-1.6,69.26-2.18,103.9-2.53,1.45,0,3,.43,4.77-1-6.8-.47-13.17-1-19.56-1.32-23.79-1.12-47.58-2.14-71.37-3.21-52.58-2.36-105.19-4-157.8-5.39-83.13-2.21-166.27-2.19-249.41-1.3-35.48.38-70.95,1.58-106.4,2.94-42.77,1.65-85.51,3.85-128.19,7-38.5,2.85-77,5.95-115.35,10.49-1.5.18-4,1.57-4.47-1.32-.55-3.13,2.13-2.84,4-3,34.11-3.56,68.24-6.78,102.43-9.33q60-4.47,120.17-7c30-1.27,59.92-2.21,89.89-3,66.3-1.81,132.61-2.06,198.92-1.36q50.73.52,101.44,1.91,61.19,1.65,122.35,4,51.42,2,102.8,4.88,58.35,3.18,116.67,7,56.31,3.67,112.59,8c41,3.15,82,5.66,123.16,7,34.81,1.16,69.62,2.06,104.43,1.49,44-.71,87.91-2.33,131.74-6,63.39-5.23,126.37-13.57,188.64-26.77,9.6-2,19.17-4.21,28.77-6.21,1.51-.31,3.76-2.24,4.54.51.91,3.21-2,3.16-4.06,3.62q-28.45,6.5-57.14,12c-40.57,7.68-81.42,13.47-122.47,17.63-35.27,3.58-70.65,6-106.1,7.53-48,2.12-95.93,2.13-143.91,1.3-18.31-.31-36.6-1.37-54.91-2.09a31.33,31.33,0,0,0-12.23.34Z"/><path class="cls-2" d="M4.79,146.48l-1.5.1C1.92,146.69.19,147.65.1,145,0,142.88,1.33,142.67,3,142.49c17.7-2,35.37-4.17,53.09-5.87q47.46-4.56,95-8.6c20.07-1.71,40.17-3.11,60.27-4.36Q268.14,120.12,325,117c24.78-1.35,49.58-2.31,74.37-3.32q79.63-3.24,159.31-5.12c37-.86,74-1.47,110.93-2.21,27-.54,54-.28,81-.92,41.48-1,83-.28,124.46-1q57.19-1,114.39-3c40.93-1.5,81.83-3.9,122.67-7,45.64-3.41,91.22-7.62,136.67-13,76.51-9.11,152.59-21,228-36.75C1534.44,32.6,1591.55,18.33,1648,1.42c1.43-.43,3.76-3.11,4.78.25.94,3.1-2.06,3.27-4,3.85-54.33,16.4-109.32,30.2-164.83,42q-67.12,14.28-135,24.6c-42.27,6.49-84.68,11.91-127.2,16.53q-64.3,7-128.81,11.41c-26.9,1.87-53.85,3.11-80.79,4.47q-78.37,4-156.85,4.13-57,.21-114,.91c-47.15.56-94.29,1.17-141.43,2.08q-55.22,1.08-110.4,3-66.66,2.2-133.3,5-46.41,2-92.78,5-64.29,4.13-128.53,9c-41.15,3.2-82.19,7.54-123.23,12-2.31.25-4.6.68-6.9,1Z"/></g></g></svg>