<svg xmlns="http://www.w3.org/2000/svg" viewBox="0 0 834.35 974.73"><defs><style>.cls-1{fill:#828282;}</style></defs><title>SI casamiento ML</title><g id="Capa_2" data-name="Capa 2"><g id="Capa_1-2" data-name="Capa 1"><path class="cls-1" d="M425.94,445.25c-24.6,16.56-46.28,33.65-67.47,51.33C336.41,515,315,534.16,293,552.58c-5.43,4.54-6,7.89-2.13,13.78,12.88,19.66,23.63,40.3,30.29,63.13,10.41,35.67,7.57,70.77-3.26,105.46C290.42,822.78,240,894.23,163.66,946.31c-28.3,19.3-59.55,32.27-94.75,27.38-37-5.14-71.06-26.59-68.8-71.47A233.2,233.2,0,0,1,10.64,843.5c17.62-55.82,47.73-104.89,81.9-151.79,37.06-50.87,81.54-95.23,124.1-141.27,6.28-6.79,5.89-9.11-2.09-13.91-43.27-26-90.05-45.32-133.21-71.42-14.45-8.74-27.91-18.81-39.06-31.63-18.21-20.94-21-43.37-6-66.59,22.24-34.3,52.09-61.42,86.56-83,19.81-12.38,43.94-5.52,58.79,13.54,3.69,4.74.33,7-1.58,9.92-15.7,23.62-31.77,47-47.25,70.76-8.41,12.9-15.66,26.53-20.31,41.34-5,16-3.65,21.48,10.27,30.09,38.71,23.95,79.58,44.1,119.11,66.63,6,3.45,9.15-.47,12.83-3.31,35.5-27.39,70.22-55.79,106.65-82,23.9-17.17,47.92-34.17,74.36-47.29,4.67-2.32,6.43-5.92,8-10.31,8.9-24.79,20.86-48.15,34-70.87,10.76-18.57,17.18-20.63,36.89-13.12,2.28.88,4.55,1.81,6.79,2.78,21.6,9.36,23.62,18.33,14.3,38-26.23,55.42-43,113.74-47.06,175.34-.5,7.47,1.61,8.87,8.55,8.05,33.64-4,66.31-11.32,96.14-28,64.87-36.18,129-73.54,185.88-122,1.6-1.36,3.36-2.52,5.06-3.76,19.38-14.08,34.22-11.78,48.6,7.14,3.78,5-1,6.11-3.12,8a990.17,990.17,0,0,1-110,86c-34.32,23-68.17,47-105.4,65-41.67,20.21-85.54,26.77-130.27,10.71C457,527,438.93,507,427.81,480.53,423.26,469.75,424.42,458.6,425.94,445.25ZM268.64,656.62c-.13-21.24.43-38.46-6.11-54.85-4.83-12.11-4.89-12.21-14.33-3.57-34,31.09-63,66.72-92.9,101.54-32.44,37.78-63.73,76.37-83.84,122.68C57.34,854.92,48,888.28,49.14,924.07c.38,11.45,2.48,13.43,14,12.43a62.45,62.45,0,0,0,20.15-5.58c43.06-19.36,78.52-48.79,108.09-85C237.23,789.74,271.36,728.4,268.64,656.62Z"/><path class="cls-1" d="M594.55,45.69c-.43,10.84-5.51,20.1-10.75,29.18-22.06,38.23-48,74-71.34,111.4-9.26,14.85-18.05,30-27.62,44.64-11.44,17.5-20.26,18.37-35.43,4.35-15.76-14.59-18.07-20.21-9.33-39.51,28-61.84,57.4-123.06,96-179.23C550.79-4.87,562-5.21,580.19,13.87,588.64,22.75,594.34,33,594.55,45.69Z"/></g></g></svg>