<svg xmlns="http://www.w3.org/2000/svg" viewBox="0 0 163.52 503.8"><defs><style>.cls-1{fill:#fdfcfb;}</style></defs><title>tie</title><g id="Capa_2" data-name="Capa 2"><g id="Capa_1-2" data-name="Capa 1"><path class="cls-1" d="M.06,378q8.21-54.32,16.39-108.62,12.17-81.23,24.23-162.44A37.77,37.77,0,0,0,39.3,89.44c-2.89-9-5.21-18.16-7.83-27.23-7-24.41-7.17-24.58,13-39.08C54.71,15.79,65.53,9.29,76,2.24c4.45-3,8-3.09,12.6.4,14.41,11,29.1,21.61,43.93,32,5.06,3.54,6.51,7.38,4.23,13-1,2.53-1.19,5.49-2.49,7.85-15.72,28.48-11.82,58-6.8,88.41,12.68,77,23.69,154.16,35.56,231.24,1.73,11.24-.91,20.74-7.47,30-19.64,27.6-36.58,57.06-57.27,83.94-15,19.47-19.94,19.89-33.33-.12-18-26.86-36.18-53.52-55-79.74C3.24,400-.53,389.73.06,378ZM81.92,105c-18.23.16-18.42.14-20.91,16.14Q41.94,243.56,23.06,366A47.81,47.81,0,0,0,30.75,401c14.92,22.19,30.28,44.1,45.3,66.22,4.11,6.05,7,5.81,11.07-.26,14.45-21.58,28.72-43.31,44.13-64.2,9.5-12.87,10.82-26.14,8.44-41.22Q121,242.6,102.92,123.58C100.06,104.88,100.37,104.83,81.92,105Zm.5-22c6.5-1,15.76,3.23,19-2.09,5.86-9.45,8.67-20.86,12.17-31.65C114.72,45.88,87.11,25.45,82,25.28,76.1,25.1,49.9,45.36,51.15,49.7c3,10.51,5.36,21.75,11.05,30.75C65.75,86.08,75.51,81.85,82.42,83Z"/></g></g></svg>